<mxfile host="app.diagrams.net" modified="2020-06-18T09:39:56.301Z" agent="5.0 (Windows NT 6.1; Win64; x64) AppleWebKit/537.36 (KHTML, like Gecko) Chrome/83.0.4103.97 Safari/537.36" etag="gnNEMPDikEJmcpCVYmS6" version="13.2.6" type="github">
  <diagram id="dxd3tHD40WdAk8Pdft18" name="Page-1">
    <mxGraphModel dx="1422" dy="761" grid="1" gridSize="10" guides="1" tooltips="1" connect="1" arrows="1" fold="1" page="1" pageScale="1" pageWidth="827" pageHeight="1169" math="0" shadow="0">
      <root>
        <mxCell id="0" />
        <mxCell id="1" parent="0" />
        <mxCell id="ILBT34EYTrfFMH7JFvp2-1" value="&lt;font style=&quot;font-size: 14px&quot; color=&quot;#0000ff&quot;&gt;游戏客户端&lt;/font&gt;" style="rounded=0;whiteSpace=wrap;html=1;align=left;verticalAlign=top;fillColor=#d5e8d4;strokeColor=#82b366;" vertex="1" parent="1">
          <mxGeometry x="40" y="160" width="240" height="120" as="geometry" />
        </mxCell>
        <mxCell id="ILBT34EYTrfFMH7JFvp2-2" value="初见SDK" style="rounded=0;whiteSpace=wrap;html=1;align=center;fillColor=#d5e8d4;strokeColor=#0000FF;" vertex="1" parent="1">
          <mxGeometry x="160" y="190" width="110" height="80" as="geometry" />
        </mxCell>
        <mxCell id="ILBT34EYTrfFMH7JFvp2-3" value="&lt;font style=&quot;font-size: 14px&quot; color=&quot;#0000ff&quot;&gt;用户中心&lt;/font&gt;" style="rounded=0;whiteSpace=wrap;html=1;align=left;verticalAlign=top;fillColor=#d5e8d4;strokeColor=#82b366;" vertex="1" parent="1">
          <mxGeometry x="480" y="160" width="240" height="120" as="geometry" />
        </mxCell>
        <mxCell id="ILBT34EYTrfFMH7JFvp2-4" value="&lt;font style=&quot;font-size: 14px&quot; color=&quot;#0000ff&quot;&gt;游戏服务器&lt;/font&gt;" style="rounded=0;whiteSpace=wrap;html=1;align=left;verticalAlign=top;fillColor=#d5e8d4;strokeColor=#82b366;" vertex="1" parent="1">
          <mxGeometry x="200" y="369" width="360" height="60" as="geometry" />
        </mxCell>
        <mxCell id="ILBT34EYTrfFMH7JFvp2-5" value="" style="endArrow=classic;html=1;entryX=0;entryY=0.5;entryDx=0;entryDy=0;exitX=1;exitY=0.138;exitDx=0;exitDy=0;exitPerimeter=0;" edge="1" parent="1" source="ILBT34EYTrfFMH7JFvp2-2">
          <mxGeometry width="50" height="50" relative="1" as="geometry">
            <mxPoint x="280" y="201" as="sourcePoint" />
            <mxPoint x="480" y="201" as="targetPoint" />
          </mxGeometry>
        </mxCell>
        <mxCell id="ILBT34EYTrfFMH7JFvp2-6" value="2. 验证&lt;br&gt;(user001,pwd001)" style="edgeLabel;html=1;align=center;verticalAlign=middle;resizable=0;points=[];labelBackgroundColor=none;" vertex="1" connectable="0" parent="ILBT34EYTrfFMH7JFvp2-5">
          <mxGeometry x="-0.13" y="-3" relative="1" as="geometry">
            <mxPoint x="3" y="-24" as="offset" />
          </mxGeometry>
        </mxCell>
        <mxCell id="ILBT34EYTrfFMH7JFvp2-7" value="" style="endArrow=classic;html=1;exitX=0;exitY=0.5;exitDx=0;exitDy=0;" edge="1" parent="1">
          <mxGeometry width="50" height="50" relative="1" as="geometry">
            <mxPoint x="480" y="237" as="sourcePoint" />
            <mxPoint x="270" y="238" as="targetPoint" />
          </mxGeometry>
        </mxCell>
        <mxCell id="ILBT34EYTrfFMH7JFvp2-8" value="3. 返回初见登录结果&lt;br&gt;(CJ001,CJToken001)" style="text;html=1;align=center;verticalAlign=middle;resizable=0;points=[];autosize=1;" vertex="1" parent="1">
          <mxGeometry x="315" y="223" width="130" height="30" as="geometry" />
        </mxCell>
        <mxCell id="ILBT34EYTrfFMH7JFvp2-10" value="" style="endArrow=classic;html=1;labelBackgroundColor=none;jumpStyle=none;exitX=0.004;exitY=0.667;exitDx=0;exitDy=0;exitPerimeter=0;" edge="1" parent="1" source="ILBT34EYTrfFMH7JFvp2-1">
          <mxGeometry width="50" height="50" relative="1" as="geometry">
            <mxPoint x="70" y="240" as="sourcePoint" />
            <mxPoint x="160" y="240" as="targetPoint" />
          </mxGeometry>
        </mxCell>
        <mxCell id="ILBT34EYTrfFMH7JFvp2-11" value="1. 拉起登录界面，&lt;br&gt;输入用户名和密码&lt;br&gt;(user001,pwd001)" style="edgeLabel;html=1;align=center;verticalAlign=middle;resizable=0;points=[];labelBackgroundColor=none;" vertex="1" connectable="0" parent="ILBT34EYTrfFMH7JFvp2-10">
          <mxGeometry x="-0.2326" y="1" relative="1" as="geometry">
            <mxPoint x="5" y="-29" as="offset" />
          </mxGeometry>
        </mxCell>
        <mxCell id="ILBT34EYTrfFMH7JFvp2-13" value="" style="endArrow=classic;html=1;labelBackgroundColor=none;" edge="1" parent="1">
          <mxGeometry width="50" height="50" relative="1" as="geometry">
            <mxPoint x="229" y="280" as="sourcePoint" />
            <mxPoint x="229" y="367" as="targetPoint" />
          </mxGeometry>
        </mxCell>
        <mxCell id="ILBT34EYTrfFMH7JFvp2-14" value="4. 登录游戏服&lt;br&gt;(CJ001,CJToken001)" style="edgeLabel;html=1;align=center;verticalAlign=middle;resizable=0;points=[];labelBackgroundColor=none;" vertex="1" connectable="0" parent="ILBT34EYTrfFMH7JFvp2-13">
          <mxGeometry x="-0.2874" y="4" relative="1" as="geometry">
            <mxPoint x="-66" y="9" as="offset" />
          </mxGeometry>
        </mxCell>
        <mxCell id="ILBT34EYTrfFMH7JFvp2-15" value="" style="endArrow=classic;html=1;labelBackgroundColor=none;" edge="1" parent="1">
          <mxGeometry width="50" height="50" relative="1" as="geometry">
            <mxPoint x="501" y="370" as="sourcePoint" />
            <mxPoint x="501" y="280" as="targetPoint" />
          </mxGeometry>
        </mxCell>
        <mxCell id="ILBT34EYTrfFMH7JFvp2-16" value="5. 验证初见Token合法性&lt;br&gt;（CJToken001）" style="edgeLabel;html=1;align=center;verticalAlign=middle;resizable=0;points=[];labelBackgroundColor=none;" vertex="1" connectable="0" parent="ILBT34EYTrfFMH7JFvp2-15">
          <mxGeometry x="0.2445" y="1" relative="1" as="geometry">
            <mxPoint x="-68.61" y="5.99" as="offset" />
          </mxGeometry>
        </mxCell>
        <mxCell id="ILBT34EYTrfFMH7JFvp2-17" value="" style="endArrow=classic;html=1;labelBackgroundColor=none;exitX=0.25;exitY=1;exitDx=0;exitDy=0;" edge="1" parent="1" source="ILBT34EYTrfFMH7JFvp2-3">
          <mxGeometry width="50" height="50" relative="1" as="geometry">
            <mxPoint x="620" y="369" as="sourcePoint" />
            <mxPoint x="540" y="370" as="targetPoint" />
          </mxGeometry>
        </mxCell>
        <mxCell id="ILBT34EYTrfFMH7JFvp2-18" value="6. 返回验证结果" style="edgeLabel;html=1;align=center;verticalAlign=middle;resizable=0;points=[];labelBackgroundColor=none;" vertex="1" connectable="0" parent="ILBT34EYTrfFMH7JFvp2-17">
          <mxGeometry x="-0.2444" y="5" relative="1" as="geometry">
            <mxPoint x="41" as="offset" />
          </mxGeometry>
        </mxCell>
        <mxCell id="ILBT34EYTrfFMH7JFvp2-20" value="" style="endArrow=classic;html=1;labelBackgroundColor=none;entryX=0.871;entryY=1.025;entryDx=0;entryDy=0;entryPerimeter=0;" edge="1" parent="1">
          <mxGeometry width="50" height="50" relative="1" as="geometry">
            <mxPoint x="261" y="365" as="sourcePoint" />
            <mxPoint x="261.03999999999996" y="279" as="targetPoint" />
          </mxGeometry>
        </mxCell>
        <mxCell id="ILBT34EYTrfFMH7JFvp2-21" value="7. 返回登录结果" style="text;html=1;align=center;verticalAlign=middle;resizable=0;points=[];autosize=1;" vertex="1" parent="1">
          <mxGeometry x="260" y="330" width="100" height="20" as="geometry" />
        </mxCell>
        <mxCell id="ILBT34EYTrfFMH7JFvp2-22" value="&lt;font color=&quot;#0000ff&quot; style=&quot;font-size: 14px&quot;&gt;&amp;nbsp; 初见用户登录流程&lt;/font&gt;" style="rounded=0;whiteSpace=wrap;html=1;labelBackgroundColor=none;align=left;fillColor=#dae8fc;strokeColor=#6c8ebf;dashed=1;" vertex="1" parent="1">
          <mxGeometry x="40" y="130" width="130" height="30" as="geometry" />
        </mxCell>
        <mxCell id="ILBT34EYTrfFMH7JFvp2-23" value="&lt;font color=&quot;#0000ff&quot;&gt;说明&lt;br&gt;&lt;br&gt;1. CJ001为初见用户ID&lt;br&gt;2. CJToken001为初见token信息，包含了用户的详细信息&amp;nbsp;&lt;/font&gt;" style="rounded=0;whiteSpace=wrap;html=1;dashed=1;labelBackgroundColor=none;strokeColor=#d6b656;align=left;verticalAlign=top;fillColor=#fff2cc;" vertex="1" parent="1">
          <mxGeometry x="40" y="443" width="330" height="90" as="geometry" />
        </mxCell>
        <mxCell id="ILBT34EYTrfFMH7JFvp2-24" value="&lt;font style=&quot;font-size: 14px&quot; color=&quot;#0000ff&quot;&gt;游戏客户端&lt;/font&gt;" style="rounded=0;whiteSpace=wrap;html=1;align=left;verticalAlign=top;fillColor=#d5e8d4;strokeColor=#82b366;" vertex="1" parent="1">
          <mxGeometry x="41" y="640" width="279" height="120" as="geometry" />
        </mxCell>
        <mxCell id="ILBT34EYTrfFMH7JFvp2-25" value="三方SDK" style="rounded=0;whiteSpace=wrap;html=1;align=center;fillColor=#d5e8d4;strokeColor=#0000FF;" vertex="1" parent="1">
          <mxGeometry x="190" y="670" width="110" height="80" as="geometry" />
        </mxCell>
        <mxCell id="ILBT34EYTrfFMH7JFvp2-26" value="&lt;font style=&quot;font-size: 14px&quot; color=&quot;#0000ff&quot;&gt;三方渠道登录服务器&lt;/font&gt;" style="rounded=0;whiteSpace=wrap;html=1;align=left;verticalAlign=top;fillColor=#d5e8d4;strokeColor=#82b366;" vertex="1" parent="1">
          <mxGeometry x="481" y="640" width="240" height="120" as="geometry" />
        </mxCell>
        <mxCell id="ILBT34EYTrfFMH7JFvp2-27" value="&lt;font style=&quot;font-size: 14px&quot; color=&quot;#0000ff&quot;&gt;用户中心&lt;/font&gt;" style="rounded=0;whiteSpace=wrap;html=1;align=left;verticalAlign=top;fillColor=#d5e8d4;strokeColor=#82b366;" vertex="1" parent="1">
          <mxGeometry x="480" y="830" width="240" height="110" as="geometry" />
        </mxCell>
        <mxCell id="ILBT34EYTrfFMH7JFvp2-28" value="" style="endArrow=classic;html=1;entryX=0;entryY=0.5;entryDx=0;entryDy=0;exitX=1;exitY=0.138;exitDx=0;exitDy=0;exitPerimeter=0;" edge="1" parent="1" source="ILBT34EYTrfFMH7JFvp2-25">
          <mxGeometry width="50" height="50" relative="1" as="geometry">
            <mxPoint x="281" y="681" as="sourcePoint" />
            <mxPoint x="481" y="681" as="targetPoint" />
          </mxGeometry>
        </mxCell>
        <mxCell id="ILBT34EYTrfFMH7JFvp2-29" value="2. 验证&lt;br&gt;(user001,pwd001)" style="edgeLabel;html=1;align=center;verticalAlign=middle;resizable=0;points=[];labelBackgroundColor=none;" vertex="1" connectable="0" parent="ILBT34EYTrfFMH7JFvp2-28">
          <mxGeometry x="-0.13" y="-3" relative="1" as="geometry">
            <mxPoint x="3" y="-24" as="offset" />
          </mxGeometry>
        </mxCell>
        <mxCell id="ILBT34EYTrfFMH7JFvp2-30" value="" style="endArrow=classic;html=1;" edge="1" parent="1">
          <mxGeometry width="50" height="50" relative="1" as="geometry">
            <mxPoint x="480" y="719" as="sourcePoint" />
            <mxPoint x="300" y="718.5" as="targetPoint" />
          </mxGeometry>
        </mxCell>
        <mxCell id="ILBT34EYTrfFMH7JFvp2-31" value="3. 返回三方登录结果&lt;br&gt;(FB001,FBToken001)" style="text;html=1;align=center;verticalAlign=middle;resizable=0;points=[];autosize=1;" vertex="1" parent="1">
          <mxGeometry x="330" y="703" width="130" height="30" as="geometry" />
        </mxCell>
        <mxCell id="ILBT34EYTrfFMH7JFvp2-32" value="" style="endArrow=classic;html=1;labelBackgroundColor=none;jumpStyle=none;exitX=0.004;exitY=0.667;exitDx=0;exitDy=0;exitPerimeter=0;" edge="1" parent="1" source="ILBT34EYTrfFMH7JFvp2-24">
          <mxGeometry width="50" height="50" relative="1" as="geometry">
            <mxPoint x="71" y="720" as="sourcePoint" />
            <mxPoint x="190" y="720" as="targetPoint" />
          </mxGeometry>
        </mxCell>
        <mxCell id="ILBT34EYTrfFMH7JFvp2-33" value="1. 拉起三方SDK登录界面&lt;br&gt;输入用户名和密码&lt;br&gt;(user001,pwd001)" style="edgeLabel;html=1;align=center;verticalAlign=middle;resizable=0;points=[];labelBackgroundColor=none;" vertex="1" connectable="0" parent="ILBT34EYTrfFMH7JFvp2-32">
          <mxGeometry x="-0.2326" y="1" relative="1" as="geometry">
            <mxPoint x="14.04" y="-29" as="offset" />
          </mxGeometry>
        </mxCell>
        <mxCell id="ILBT34EYTrfFMH7JFvp2-34" value="" style="endArrow=classic;html=1;labelBackgroundColor=none;" edge="1" parent="1">
          <mxGeometry width="50" height="50" relative="1" as="geometry">
            <mxPoint x="144" y="760" as="sourcePoint" />
            <mxPoint x="144" y="847" as="targetPoint" />
          </mxGeometry>
        </mxCell>
        <mxCell id="ILBT34EYTrfFMH7JFvp2-35" value="4. 验证三方Token&lt;br&gt;(FB001,FBToken001)" style="edgeLabel;html=1;align=center;verticalAlign=middle;resizable=0;points=[];labelBackgroundColor=none;" vertex="1" connectable="0" parent="ILBT34EYTrfFMH7JFvp2-34">
          <mxGeometry x="-0.2874" y="4" relative="1" as="geometry">
            <mxPoint x="212" y="24" as="offset" />
          </mxGeometry>
        </mxCell>
        <mxCell id="ILBT34EYTrfFMH7JFvp2-36" value="" style="endArrow=classic;html=1;labelBackgroundColor=none;" edge="1" parent="1" target="ILBT34EYTrfFMH7JFvp2-27">
          <mxGeometry width="50" height="50" relative="1" as="geometry">
            <mxPoint x="321" y="886" as="sourcePoint" />
            <mxPoint x="310" y="880" as="targetPoint" />
          </mxGeometry>
        </mxCell>
        <mxCell id="ILBT34EYTrfFMH7JFvp2-37" value="9. 验证初见Token合法性&lt;br&gt;（CJToken001）" style="edgeLabel;html=1;align=center;verticalAlign=middle;resizable=0;points=[];labelBackgroundColor=none;" vertex="1" connectable="0" parent="ILBT34EYTrfFMH7JFvp2-36">
          <mxGeometry x="0.2445" y="1" relative="1" as="geometry">
            <mxPoint x="-23" y="-15.000000000000002" as="offset" />
          </mxGeometry>
        </mxCell>
        <mxCell id="ILBT34EYTrfFMH7JFvp2-38" value="" style="endArrow=classic;html=1;labelBackgroundColor=none;exitX=0;exitY=0.75;exitDx=0;exitDy=0;entryX=1;entryY=0.75;entryDx=0;entryDy=0;" edge="1" parent="1">
          <mxGeometry width="50" height="50" relative="1" as="geometry">
            <mxPoint x="480" y="923.5" as="sourcePoint" />
            <mxPoint x="320" y="923.25" as="targetPoint" />
          </mxGeometry>
        </mxCell>
        <mxCell id="ILBT34EYTrfFMH7JFvp2-39" value="10. 返回验证结果" style="edgeLabel;html=1;align=center;verticalAlign=middle;resizable=0;points=[];labelBackgroundColor=none;" vertex="1" connectable="0" parent="ILBT34EYTrfFMH7JFvp2-38">
          <mxGeometry x="-0.2444" y="5" relative="1" as="geometry">
            <mxPoint x="-24.99" y="-16.41" as="offset" />
          </mxGeometry>
        </mxCell>
        <mxCell id="ILBT34EYTrfFMH7JFvp2-40" value="" style="endArrow=classic;html=1;labelBackgroundColor=none;entryX=0.871;entryY=1.025;entryDx=0;entryDy=0;entryPerimeter=0;" edge="1" parent="1">
          <mxGeometry width="50" height="50" relative="1" as="geometry">
            <mxPoint x="223" y="845" as="sourcePoint" />
            <mxPoint x="223.03999999999996" y="759" as="targetPoint" />
          </mxGeometry>
        </mxCell>
        <mxCell id="ILBT34EYTrfFMH7JFvp2-41" value="7. 返回初见Token&lt;br&gt;(CJ001,CJToken001)" style="text;html=1;align=center;verticalAlign=middle;resizable=0;points=[];autosize=1;" vertex="1" parent="1">
          <mxGeometry x="360" y="760" width="130" height="30" as="geometry" />
        </mxCell>
        <mxCell id="ILBT34EYTrfFMH7JFvp2-42" value="&lt;font color=&quot;#0000ff&quot; style=&quot;font-size: 14px&quot;&gt;&amp;nbsp; 三方用户登录流程&lt;/font&gt;" style="rounded=0;whiteSpace=wrap;html=1;labelBackgroundColor=none;align=left;fillColor=#dae8fc;strokeColor=#6c8ebf;dashed=1;" vertex="1" parent="1">
          <mxGeometry x="41" y="610" width="149" height="30" as="geometry" />
        </mxCell>
        <mxCell id="ILBT34EYTrfFMH7JFvp2-43" value="&lt;font color=&quot;#0000ff&quot;&gt;说明&lt;br&gt;&lt;br&gt;1. FB001为三方渠道FB用户ID&lt;br&gt;2. FBToken001为三方渠道FB token信息，包含了用户的详细信息&amp;nbsp;&lt;br&gt;&lt;/font&gt;&lt;span style=&quot;color: rgb(0 , 0 , 255)&quot;&gt;3. CJ001为初见用户ID&lt;/span&gt;&lt;br style=&quot;color: rgb(0 , 0 , 255)&quot;&gt;&lt;span style=&quot;color: rgb(0 , 0 , 255)&quot;&gt;4. CJToken001为初见token信息，包含了用户的详细信息&amp;nbsp;&lt;/span&gt;&lt;font color=&quot;#0000ff&quot;&gt;&lt;br&gt;&lt;/font&gt;" style="rounded=0;whiteSpace=wrap;html=1;dashed=1;labelBackgroundColor=none;strokeColor=#d6b656;align=left;verticalAlign=top;fillColor=#fff2cc;" vertex="1" parent="1">
          <mxGeometry x="30" y="998" width="360" height="112" as="geometry" />
        </mxCell>
        <mxCell id="ILBT34EYTrfFMH7JFvp2-44" value="&lt;font color=&quot;#0000ff&quot;&gt;&lt;span style=&quot;font-size: 14px&quot;&gt;游戏服务器&lt;/span&gt;&lt;/font&gt;" style="rounded=0;whiteSpace=wrap;html=1;align=left;verticalAlign=top;fillColor=#d5e8d4;strokeColor=#82b366;" vertex="1" parent="1">
          <mxGeometry x="40" y="849" width="280" height="91" as="geometry" />
        </mxCell>
        <mxCell id="ILBT34EYTrfFMH7JFvp2-46" value="" style="endArrow=classic;html=1;labelBackgroundColor=none;entryX=0;entryY=0.25;entryDx=0;entryDy=0;" edge="1" parent="1" source="ILBT34EYTrfFMH7JFvp2-24" target="ILBT34EYTrfFMH7JFvp2-27">
          <mxGeometry width="50" height="50" relative="1" as="geometry">
            <mxPoint x="390" y="880" as="sourcePoint" />
            <mxPoint x="440" y="830" as="targetPoint" />
          </mxGeometry>
        </mxCell>
        <mxCell id="ILBT34EYTrfFMH7JFvp2-47" value="" style="endArrow=classic;html=1;labelBackgroundColor=none;entryX=1.007;entryY=0.908;entryDx=0;entryDy=0;entryPerimeter=0;exitX=0;exitY=0;exitDx=0;exitDy=0;" edge="1" parent="1" source="ILBT34EYTrfFMH7JFvp2-27" target="ILBT34EYTrfFMH7JFvp2-24">
          <mxGeometry width="50" height="50" relative="1" as="geometry">
            <mxPoint x="481" y="850" as="sourcePoint" />
            <mxPoint x="531" y="800" as="targetPoint" />
          </mxGeometry>
        </mxCell>
        <mxCell id="ILBT34EYTrfFMH7JFvp2-49" value="" style="endArrow=classic;html=1;labelBackgroundColor=none;" edge="1" parent="1">
          <mxGeometry width="50" height="50" relative="1" as="geometry">
            <mxPoint x="561.2972972972973" y="830" as="sourcePoint" />
            <mxPoint x="561.6756756756756" y="760" as="targetPoint" />
          </mxGeometry>
        </mxCell>
        <mxCell id="ILBT34EYTrfFMH7JFvp2-50" value="" style="endArrow=classic;html=1;labelBackgroundColor=none;entryX=0.658;entryY=0.009;entryDx=0;entryDy=0;entryPerimeter=0;" edge="1" parent="1" target="ILBT34EYTrfFMH7JFvp2-27">
          <mxGeometry width="50" height="50" relative="1" as="geometry">
            <mxPoint x="638" y="763" as="sourcePoint" />
            <mxPoint x="700" y="770" as="targetPoint" />
          </mxGeometry>
        </mxCell>
        <mxCell id="ILBT34EYTrfFMH7JFvp2-51" value="5. 验证三方Token&lt;br&gt;(FB001,FBToken001)" style="edgeLabel;html=1;align=center;verticalAlign=middle;resizable=0;points=[];labelBackgroundColor=none;" vertex="1" connectable="0" parent="1">
          <mxGeometry x="550" y="800" as="geometry" />
        </mxCell>
        <mxCell id="ILBT34EYTrfFMH7JFvp2-52" value="6. 返回验证结果" style="text;html=1;align=center;verticalAlign=middle;resizable=0;points=[];autosize=1;" vertex="1" parent="1">
          <mxGeometry x="640" y="780" width="100" height="20" as="geometry" />
        </mxCell>
        <mxCell id="ILBT34EYTrfFMH7JFvp2-53" value="8. 登录游戏服&lt;br&gt;(CJ001,CJToken001)" style="edgeLabel;html=1;align=center;verticalAlign=middle;resizable=0;points=[];labelBackgroundColor=none;" vertex="1" connectable="0" parent="1">
          <mxGeometry x="100" y="800" as="geometry" />
        </mxCell>
        <mxCell id="ILBT34EYTrfFMH7JFvp2-54" value="11. 返回登录结果" style="text;html=1;align=center;verticalAlign=middle;resizable=0;points=[];autosize=1;" vertex="1" parent="1">
          <mxGeometry x="186" y="790" width="110" height="20" as="geometry" />
        </mxCell>
      </root>
    </mxGraphModel>
  </diagram>
</mxfile>
